<?xml version="1.0" encoding="UTF-8"?>
<svg width="130px" height="18px" viewBox="0 0 130 18" version="1.1" xmlns="http://www.w3.org/2000/svg" xmlns:xlink="http://www.w3.org/1999/xlink">
    <defs>
        <polygon id="path-1" points="126.142225 4.35281105 129.992147 4.35281105 129.992147 8.20268252 126.142225 8.20268252"></polygon>
    </defs>
    <g id="Page-1" stroke="none" stroke-width="1" fill="none" fill-rule="evenodd">
        <g id="PrimaryHeader-UnAuth-992Help" transform="translate(-31.000000, -39.000000)">
            <g id="nav" transform="translate(0.000000, 39.000000)">
                <g id="main" transform="translate(31.000000, 0.000000)">
                    <g id="SF-Logo">
                        <path d="M20.4104344,16.4683766 C18.8160129,16.4683766 17.3365527,16.054482 16.2424139,15.2921941 C15.2933136,14.6340064 14.7535964,13.7831581 14.7535964,12.8943792 C14.7574396,11.7018213 15.6955116,10.8957545 16.2435835,10.5181195 C17.3390591,9.76719409 18.8257044,9.35864653 20.4273111,9.3561401 C22.0340977,9.35864653 23.524419,9.76719409 24.6334293,10.5204589 C25.1861799,10.8982609 26.1297661,11.7063329 26.133108,12.8943792 C26.1162314,14.8811401 23.4799717,16.4635308 20.4104344,16.4683766 L20.4104344,16.4683766 Z M13.6967198,11.7537879 C13.3947789,10.9101247 12.7671697,10.157027 11.9106401,9.56049743 C12.4727481,9.66275964 13.0615913,9.71706555 13.6696504,9.71706555 C14.2947532,9.71706555 14.8983008,9.66008612 15.4746118,9.55565167 C14.6204216,10.1521812 13.9933136,10.9056131 13.6967198,11.7537879 L13.6967198,11.7537879 Z M6.91299229,16.4683766 C5.31706684,16.4683766 3.83777378,16.054482 2.7422982,15.2921941 C1.79587147,14.6340064 1.25698972,13.7831581 1.25698972,12.8943792 C1.26200257,11.7018213 2.19673265,10.8939165 2.74363496,10.5181195 C3.84161697,9.76719409 5.32675835,9.35864653 6.92853213,9.3561401 C8.53531877,9.35864653 10.0269769,9.76719409 11.132144,10.5204589 C11.6852288,10.8982609 12.6331594,11.7038265 12.6380051,12.8943792 C12.6199589,14.8811401 9.98169409,16.4635308 6.91299229,16.4683766 L6.91299229,16.4683766 Z M8.017491,4.92176992 C8.02133419,3.7287108 8.95740103,2.92314524 9.50547301,2.54784961 C10.6021183,1.7924126 12.0887635,1.38587018 13.6890334,1.38587018 C15.2954859,1.38587018 16.787144,1.79475193 17.8923111,2.54784961 C18.4453959,2.92565167 19.3911542,3.73372365 19.3958329,4.92176992 C19.3776195,6.91103728 16.7418612,8.49359512 13.6721568,8.49827378 C12.0777352,8.49827378 10.5982751,8.08488046 9.50547301,7.32443059 C8.55520308,6.66356941 8.017491,5.81288817 8.017491,4.92176992 L8.017491,4.92176992 Z M20.4273111,8.13918638 C19.8017069,8.13918638 19.1983265,8.19616581 18.6243548,8.30110154 C19.8779023,7.4337108 20.6505501,6.24081877 20.6505501,4.92427635 C20.6505501,2.27498329 17.5450874,0.167078406 13.6890334,0.167078406 C9.83448329,0.167078406 6.76060154,2.27498329 6.76060154,4.92427635 C6.76060154,6.2431581 7.51854499,7.43588303 8.75972751,8.30327378 C8.1748946,8.19616581 7.56165553,8.13918638 6.92853213,8.13918638 C3.07348072,8.13918638 0.000100257069,10.2474254 0.000100257069,12.8943792 C0.000100257069,15.5391607 3.05660411,17.6876697 6.91299229,17.6876697 C10.1947404,17.6876697 12.9461285,16.1331838 13.6942134,14.0374769 C14.4245861,16.1331838 17.128018,17.6876697 20.4104344,17.6876697 C24.2663213,17.6876697 27.389162,15.5391607 27.389162,12.8943792 C27.389162,10.2474254 24.2810257,8.13918638 20.4273111,8.13918638 L20.4273111,8.13918638 Z M23.9500103,10.938865 C23.0642391,10.4207031 21.825563,10.0952018 20.4420154,10.0952018 C19.0599717,10.0952018 17.827144,10.4207031 16.9503959,10.9365257 C16.0706401,11.4541864 15.5554859,12.1482995 15.5546504,12.8968856 C15.5554859,13.6429653 16.068635,14.3466028 16.9467198,14.8717828 C17.8211285,15.3917828 19.0502802,15.7244692 20.4323239,15.7269756 C21.8158715,15.7244692 23.057054,15.3917828 23.9451645,14.8694434 C24.8342776,14.3466028 25.3591234,13.6429653 25.3604602,12.8968856 C25.3591234,12.1533123 24.8367841,11.4568599 23.9500103,10.938865 L23.9500103,10.938865 Z M10.4156401,10.938865 C9.53120566,10.4207031 8.29252956,10.0952018 6.91031877,10.0952018 C5.52643702,10.0952018 4.29528021,10.4207031 3.41686118,10.9365257 C2.53760668,11.4541864 2.02128278,12.1482995 2.01877635,12.8943792 C2.02128278,13.6429653 2.53510026,14.3466028 3.41218252,14.8717828 C4.28675835,15.3917828 5.51557584,15.7244692 6.89929049,15.7269756 C8.28267095,15.7244692 9.52402057,15.3917828 10.4106272,14.8694434 C11.3000746,14.3466028 11.8249203,13.6429653 11.8274267,12.8968856 C11.8249203,12.1533123 11.3024139,11.4568599 10.4156401,10.938865 L10.4156401,10.938865 Z M10.1947404,6.90351799 C11.0694833,7.42635861 12.2984679,7.75904499 13.6818483,7.75904499 C15.0623882,7.75904499 16.3037378,7.42635861 17.1918483,6.90351799 C18.0821311,6.38067738 18.6073111,5.6752018 18.6096504,4.93129434 C18.6073111,4.18504756 18.0859743,3.48658997 17.1990334,2.96826093 C16.3147661,2.45076735 15.0764242,2.12509897 13.6917069,2.12259254 C12.3094961,2.12509897 11.0780051,2.45076735 10.1999203,2.96826093 C9.32016452,3.48658997 8.80384062,4.18270823 8.80166838,4.92878792 C8.80384062,5.67737404 9.31815938,6.38067738 10.1947404,6.90351799 L10.1947404,6.90351799 Z M41.4154602,1.76400643 L40.8306272,4.68165424 L40.7014627,4.72092159 C40.4685321,4.40477763 40.3290077,4.28012468 40.0050103,4.03766967 C39.2851645,3.50162853 38.4324781,3.19768252 37.5615784,3.19768252 C36.8786607,3.19768252 36.311874,3.40454627 35.9181979,3.74792674 C35.5218483,4.0913072 35.296437,4.57838946 35.296437,5.12245116 C35.2986093,6.15259254 36.0259743,6.65404499 37.3187892,7.40497044 L37.8217455,7.68084447 C38.904856,8.36877506 40.5865013,9.42381362 40.5865013,11.8181195 C40.5826581,14.5390964 38.783545,17.2689293 34.4658072,17.275446 C33.4075938,17.275446 32.3709357,17.0928111 31.3737121,16.7313843 C30.7016555,16.4824126 30.3776581,16.2651889 29.969946,15.9734409 L29.9360257,15.7857931 L30.5094961,12.9394949 L30.6378252,12.8982224 C30.8978252,13.2238907 31.2239949,13.4897391 31.7112442,13.802374 C32.7510771,14.4745977 33.7484679,14.5459473 34.173892,14.5459473 C35.698635,14.5447776 36.896874,13.7011144 36.896874,12.3920913 C36.8955373,11.2204203 35.9389177,10.6332481 34.9395219,10.0619499 L34.2487506,9.64955913 C33.1611285,8.96029177 31.6535964,8.02305527 31.6485835,5.67403213 C31.6485835,4.77105013 31.9171054,3.47472622 32.7427224,2.41266967 C33.8318483,1.01642288 35.5439049,0.513967866 37.2686607,0.513967866 C39.4885193,0.513967866 40.7591105,1.2757545 41.3541362,1.64536889 L41.4154602,1.76400643 Z M48.6454987,7.2898419 L48.5118226,7.41700129 L46.5883907,7.36937918 L45.6972725,11.4366414 C45.5721183,11.9464486 45.2984165,13.219045 45.2984165,13.6290964 C45.2974139,14.0125797 45.4456272,14.2739165 45.6531594,14.4284794 C45.8616941,14.5853817 46.1176838,14.6365129 46.348108,14.6378496 C46.883982,14.6378496 47.0717969,14.4928111 47.4275424,14.3608059 L47.4912057,14.4179524 L47.0188278,16.7609602 L46.8560771,16.9141864 C46.1995604,17.0495334 45.706964,17.1599833 45.0111799,17.1599833 C43.2247661,17.1501247 41.9292776,16.5676311 41.9220925,14.5459473 C41.9220925,13.5991864 42.3179409,11.8764357 42.6101902,10.5956517 L43.3203445,7.36687275 L41.8079666,7.41700129 L41.7168997,7.2898419 L42.1597018,5.01434062 L42.2972211,4.94065167 L43.8316555,4.94065167 L44.4470668,1.94513753 L44.5670411,1.81363368 C46.1028123,1.43232262 46.5469512,1.24952057 47.9510514,0.802541131 L48.0225681,0.883582262 L47.5577095,2.81386504 L47.0801517,4.98693702 L49.0490334,4.92878792 L49.1031722,5.0287108 L48.6454987,7.2898419 Z M55.374419,13.4446234 C55.374419,13.4446234 54.7082108,14.4607288 53.7452416,14.8241607 C52.7812699,15.1864229 52.0868226,14.900356 51.8111157,14.5390964 C51.5928895,14.2563715 51.1365527,13.3640835 52.0061157,12.3596748 C52.8842005,11.3462429 55.796,11.2809087 55.796,11.2809087 L55.374419,13.4446234 Z M58.2464499,5.45045887 C57.5414756,4.96805527 56.414419,4.71975193 54.8676195,4.71975193 C54.1009871,4.71975193 53.3320154,4.79110154 52.5605373,4.93363368 C51.8674267,5.06062596 51.4381594,5.1687365 51.0713856,5.27083162 L50.971964,5.36958483 L50.4705116,7.86013753 L50.6324267,7.95538175 C50.9550874,7.81151285 51.4283008,7.63455913 52.0513985,7.42067738 C52.6905373,7.20311954 53.2765398,7.09367224 53.8065656,7.09367224 C54.5830566,7.09367224 55.1703959,7.19610154 55.5766041,7.40864653 C55.9896632,7.6252018 56.2840848,8.09908355 56.2840848,8.6207545 C56.2840848,8.74891645 56.2743933,8.86170566 56.2561799,8.96413496 C56.2349589,9.06038175 56.2227609,9.1303946 56.2180823,9.17049743 L56.210563,9.22413496 C56.210563,9.22413496 55.9604216,9.24101157 55.6932365,9.26356941 C55.5177866,9.27977763 55.291874,9.30367224 55.0342134,9.33358226 C54.610126,9.37736118 54.1220411,9.43567738 53.6974524,9.50569023 C52.674329,9.66961054 49.8021311,10.1033895 48.9399203,11.9675026 C48.0356015,13.4959216 48.1903316,15.5219499 49.0784422,16.5084794 C49.3885707,16.8568728 49.8681337,17.1853817 50.5136221,17.3117057 L50.5122853,17.314045 C50.5401902,17.3230681 50.6396118,17.3352661 50.6608329,17.3402789 C53.1467069,17.7122326 54.9289434,15.6145206 54.9289434,15.6145206 L54.6615913,16.9076697 L54.7708715,16.9985694 L57.563365,16.9076697 L57.6789949,16.8092506 L59.3198689,8.81408355 C59.3549589,8.64581877 59.3836992,8.4461401 59.4057558,8.21922494 C59.4231337,7.98963625 59.4353316,7.80332519 59.4353316,7.66647429 C59.4328252,6.6433509 58.9571054,5.93302956 58.2464499,5.45045887 L58.2464499,5.45045887 Z M125.265126,7.57139717 C125.265126,8.29491902 125.097697,9.04601157 124.930936,9.77772108 L123.507285,16.8224512 L123.398339,16.9076697 L120.189111,17.0174512 L120.108571,16.9076697 C120.108571,16.9076697 121.753789,9.12538175 121.753789,8.73822237 C121.753789,8.38548458 121.561964,7.44072879 120.54001,7.44072879 C119.735614,7.44072879 118.904149,8.2274126 118.904149,8.2274126 L117.170871,16.8224512 L117.064432,16.9076697 L115.683057,16.9542892 L114.446553,16.9952275 L113.834817,17.0149447 L113.798558,16.9666542 L113.758789,16.9076697 C113.758789,16.9076697 114.007427,15.7234666 114.313712,14.2563715 L114.307028,14.2563715 C114.785589,11.9618213 115.397992,8.97466195 115.397992,8.73822237 C115.397992,8.38548458 115.206835,7.44072879 114.183211,7.44072879 C113.381488,7.44072879 112.550023,8.2274126 112.550023,8.2274126 L110.816913,16.8224512 L110.707799,16.9076697 L110.212028,16.9247134 L107.480692,17.0126054 L107.410512,16.9076697 L109.81618,4.94065167 L109.937157,4.82301671 L113.137864,4.53093445 L113.268198,4.65675707 L112.928159,6.34057455 C112.928159,6.34057455 114.47262,4.70053599 116.442671,4.66293959 C118.280717,4.62918638 118.665704,6.34057455 118.665704,6.34057455 C118.665704,6.34057455 120.493558,4.62350514 122.444059,4.66293959 C123.431257,4.67096015 125.259111,5.09304242 125.265126,7.57139717 L125.265126,7.57139717 Z M108.850036,4.55716838 L108.165949,7.99548458 L108.022915,8.13684704 C107.827414,8.10242545 107.578776,8.07418638 107.284522,8.07418638 C106.362491,8.07418638 105.052131,8.3605874 104.027003,9.67696272 L104.016977,9.68765681 L102.605023,16.8224512 L102.504432,16.9076697 L99.4382365,16.9977339 L99.3593676,16.9190321 L101.770216,4.94065167 L101.901219,4.81482905 L104.93717,4.53093445 L105.055473,4.65675707 L104.70708,6.39137147 L104.855961,6.25953342 C105.489586,5.70227121 106.052864,5.31761825 106.681308,4.9705617 C107.303738,4.62350514 107.928172,4.45139717 108.555781,4.45139717 C108.616604,4.45139717 108.678429,4.45139717 108.744432,4.45473907 L108.850036,4.55716838 Z M95.2959486,13.4446234 C95.2959486,13.4446234 94.6294062,14.4607288 93.6677738,14.8241607 C92.7026324,15.1864229 92.0071825,14.900356 91.733982,14.5390964 C91.5139177,14.2563715 91.0574139,13.3640835 91.9259743,12.3596748 C92.8057301,11.3462429 95.7163599,11.2809087 95.7163599,11.2809087 L95.2959486,13.4446234 Z M98.1709871,5.45045887 C97.4640077,4.96805527 96.3354473,4.71975193 94.7884807,4.71975193 C94.0246889,4.71975193 93.2532108,4.79110154 92.4802288,4.93363368 C91.7889563,5.06062596 91.3593548,5.1687365 90.9937506,5.27083162 L90.8931594,5.36958483 L90.3917069,7.86013753 L90.5539563,7.95538175 C90.8762828,7.81151285 91.349162,7.63455913 91.9724267,7.42067738 C92.6120668,7.20311954 93.1982365,7.09367224 93.7285964,7.09367224 C94.5042519,7.09367224 95.094599,7.19610154 95.4972982,7.40864653 C95.9118612,7.6252018 96.2077866,8.09908355 96.2061157,8.6207545 C96.2061157,8.74891645 96.1959229,8.86170566 96.1773753,8.96413496 C96.1569897,9.06038175 96.1442905,9.1303946 96.1392776,9.17049743 L96.1307558,9.22413496 C96.1307558,9.22413496 95.8804473,9.24101157 95.6147661,9.26356941 C95.438982,9.27977763 95.2147404,9.30367224 94.95591,9.33358226 C94.5313213,9.37736118 94.0432365,9.43567738 93.6186478,9.50569023 C92.5958586,9.66961054 89.7233265,10.1033895 88.8612828,11.9675026 C87.9571311,13.4959216 88.1111928,15.5219499 88.9993033,16.5084794 C89.3122725,16.8568728 89.789329,17.1853817 90.4346504,17.3117057 L90.4338149,17.314045 C90.4617198,17.3230681 90.5616427,17.3352661 90.5818612,17.3402789 C93.0679023,17.7122326 94.8501388,15.6145206 94.8501388,15.6145206 L94.5829537,16.9076697 L94.6920668,16.9985694 L97.4850617,16.9076697 L97.6000231,16.8092506 L99.2435707,8.81408355 C99.2773239,8.64581877 99.3052288,8.4461401 99.3264499,8.21922494 C99.344329,7.98963625 99.3560257,7.80332519 99.3560257,7.66647429 C99.3535193,6.6433509 98.8764627,5.93302956 98.1709871,5.45045887 L98.1709871,5.45045887 Z M90.9937506,3.45216838 L90.8873111,3.56612725 L85.8069512,3.5540964 L84.9806658,7.66079306 L89.4263985,7.53079306 L89.492401,7.63322237 C89.126964,8.81408355 89.0415784,9.14793959 88.7956144,10.1772455 L88.6829923,10.281847 L84.4553188,10.2723226 L83.8995604,13.1214614 L83.1957558,16.8224512 L83.1020154,16.9076697 L79.4605116,16.9985694 L79.4163985,16.9076697 L80.0473496,13.7572584 L81.0134936,9.30985476 C81.7416941,5.85432776 81.9507301,4.75049743 82.639162,0.985677378 L82.7482751,0.882412596 L88.0689177,0.882412596 L91.4472468,0.796692802 L91.5115784,0.882412596 L90.9937506,3.45216838 Z M67.2512057,7.2898419 L67.118365,7.41700129 L65.1930951,7.36937918 L64.3016427,11.4366414 C64.1781594,11.9464486 63.9057943,13.219045 63.9057943,13.6290964 C63.9032879,14.0125797 64.0520026,14.2739165 64.2602031,14.4284794 C64.4665656,14.5853817 64.7245604,14.6365129 64.9554859,14.6378496 C65.4900231,14.6378496 65.677838,14.4928111 66.0347532,14.3608059 L66.0974139,14.4179524 L65.6247018,16.7609602 L65.4621183,16.9141864 C64.8032622,17.0495334 64.3118355,17.1599833 63.6182237,17.1599833 C61.8274653,17.1501247 60.5349846,16.5676311 60.5277995,14.5459473 C60.5277995,13.5991864 60.9224781,11.8764357 61.2158972,10.5956517 L61.9272211,7.36687275 L60.4148432,7.41700129 L60.3239434,7.2898419 L60.7655758,5.01434062 L60.902928,4.94065167 L62.4381979,4.94065167 L63.053108,1.94513753 L63.1724139,1.81363368 C64.7101902,1.43232262 65.154329,1.24952057 66.5550874,0.802541131 L66.6287763,0.883582262 L66.1650874,2.81386504 L65.6836864,4.98693702 L67.6564113,4.92878792 L67.7080437,5.0287108 L67.2512057,7.2898419 Z M74.8420026,9.42247686 L74.8318098,9.47745116 L72.8761285,9.50117866 L70.9435064,9.52624293 L70.9610514,9.46308098 L70.9705758,9.43567738 C71.0093419,9.30367224 71.051617,9.15997044 71.1005758,9.01275964 C71.2335835,8.6002018 71.4239049,8.15121722 71.7606015,7.73899357 C71.8197532,7.66898072 71.8805758,7.59763111 71.947581,7.53012468 C72.5464499,6.89533033 73.1139049,6.79657712 73.4810129,6.79657712 C73.999509,6.79657712 74.3784807,6.99742545 74.6212699,7.29569023 C74.661874,7.3481581 74.6974653,7.39895501 74.7312185,7.4574383 C74.8513599,7.65711697 74.9248817,7.88286247 74.9519512,8.11913496 C74.9638149,8.20368509 74.9698303,8.29257969 74.9698303,8.37813239 C74.9698303,8.73220694 74.9054987,9.08043316 74.8420026,9.42247686 L74.8420026,9.42247686 Z M76.1640591,5.31761825 L76.2004859,5.26013753 L76.1615527,5.31761825 C75.4889949,4.87047172 74.5154987,4.66293959 73.5630566,4.66293959 C71.4026838,4.66527892 69.8598946,5.69892931 68.8439563,7.1531581 C67.8347018,8.61123008 67.3594833,10.4898805 67.3594833,12.1615 C67.3594833,13.3695977 67.5464627,14.4963201 68.3069126,15.5129267 C68.6815398,16.0095334 69.5890334,17.2027596 72.5235578,17.2067699 C74.5611157,17.205099 75.5264242,16.6937879 76.0490977,16.3971941 L76.1369897,16.2832352 C76.239419,15.850626 76.5827995,13.8855874 76.7233265,13.3923226 L76.6175553,13.313955 C75.5872468,14.1051504 74.4638663,14.6827982 73.1882622,14.6827982 C72.3322339,14.6827982 71.6818997,14.4866285 71.2429409,14.1063201 C70.8046504,13.7296877 70.5907686,13.1725925 70.5907686,12.4823226 C70.5907686,12.2278368 70.6119897,11.9962429 70.6328766,11.7419242 L70.638892,11.6824383 L70.6990463,11.680099 C72.6936607,11.6304717 73.7102674,11.6042378 75.3808843,11.6042378 C75.9262828,11.6042378 76.5421954,11.6067442 77.2857686,11.6124254 L77.4142648,11.525536 C77.5801902,10.7751118 77.7611542,9.91707841 77.7611542,8.86170566 C77.7611542,7.92547172 77.6578895,6.25953342 76.1640591,5.31761825 L76.1640591,5.31761825 Z" id="Fill-1" fill="#FC2929"></path>
                        <path d="M127.767242,6.18109897 L128.012871,6.18109897 C128.292254,6.18109897 128.467203,6.0467545 128.467203,5.84206298 C128.467203,5.61598329 128.292254,5.51221722 128.022897,5.51221722 C127.891728,5.51221722 127.807512,5.52140746 127.767242,5.53043059 L127.767242,6.18109897 Z M127.356522,5.27093188 C127.511419,5.24653599 127.743514,5.22815553 127.982627,5.22815553 C128.308964,5.22815553 128.531201,5.2769473 128.682756,5.39307841 C128.807242,5.48782134 128.877756,5.63135604 128.877756,5.80546915 C128.877756,6.07115039 128.679247,6.25144602 128.467203,6.32162596 L128.467203,6.3308162 C128.628784,6.38579049 128.726368,6.52932519 128.783514,6.72783419 C128.854362,6.98449229 128.914851,7.22276992 128.961972,7.3021401 L128.534542,7.3021401 C128.500956,7.24098329 128.446985,7.0730527 128.383154,6.8163946 C128.319157,6.54770566 128.21138,6.46215296 127.975776,6.45613753 L127.767242,6.45613753 L127.767242,7.3021401 L127.356522,7.3021401 L127.356522,5.27093188 Z" id="Fill-4" fill="#FC2929"></path>
                        <mask id="mask-2" fill="white">
                            <use xlink:href="#path-1"></use>
                        </mask>
                        <g id="Clip-7"></g>
                        <path d="M128.067161,7.84175707 C127.203446,7.84175707 126.503317,7.14162853 126.503317,6.27774679 C126.503317,5.41403213 127.203446,4.7137365 128.067161,4.7137365 C128.931042,4.7137365 129.631171,5.41403213 129.631171,6.27774679 C129.631171,7.14162853 128.931042,7.84175707 128.067161,7.84175707 M128.067161,4.35281105 C127.004102,4.35281105 126.142225,5.21468766 126.142225,6.27774679 C126.142225,7.34080591 127.004102,8.20268252 128.067161,8.20268252 C129.13022,8.20268252 129.992263,7.34080591 129.992263,6.27774679 C129.992263,5.21468766 129.13022,4.35281105 128.067161,4.35281105" id="Fill-6" fill="#FC2929" mask="url(#mask-2)"></path>
                    </g>
                </g>
            </g>
        </g>
    </g>
</svg>
